PathFileType	4	(X/Y/Z)	./resultDataOpenSim/trcMotMarkerGrf/sub10/qtm-13-01.trc
DataRate	CameraRate	NumFrames	NumMarkers	Units	OrigDataRate	OrigDataStartFrame	OrigNumFrames
250.000000	250.000000	9	24	m	250.000000	278	444
Frame#	Time	L.Toe.Tip			R.Toe.Tip			L.Ankle.Lat			R.Ankle.Lat			L.Ankle.Med			R.Ankle.Med			L.Heel			R.Heel			L.Knee.Lat			R.Knee.Lat			L.Knee.Med			R.Knee.Med			L.Thigh.Upper			R.Thigh.Upper			L.ASIS			R.ASIS			V.Sacral			L.Acromium			R.Acromium			C7			L.Elbow			R.Elbow			L.Wrist.Lat			R.Wrist.Lat
		X1	Y1	Z1	X2	Y2	Z2	X3	Y3	Z3	X4	Y4	Z4	X5	Y5	Z5	X6	Y6	Z6	X7	Y7	Z7	X8	Y8	Z8	X9	Y9	Z9	X10	Y10	Z10	X11	Y11	Z11	X12	Y12	Z12	X13	Y13	Z13	X14	Y14	Z14	X15	Y15	Z15	X16	Y16	Z16	X17	Y17	Z17	X18	Y18	Z18	X19	Y19	Z19	X20	Y20	Z20	X21	Y21	Z21	X22	Y22	Z22	X23	Y23	Z23	X24	Y24	Z24

278	1.108	0.066370667	-0.0064181609	-0.10106007	0.86427708	0.076174147	0.089242853	-0.024056746	0.092826552	-0.13816483	0.72758177	0.056962676	0.13582325	-0.0013488489	0.10596627	-0.05668002	0.7369367	0.085023486	0.051308246	-0.090722261	0.10186838	-0.095374575	0.68608225	0.016540961	0.092329299	0.19743393	0.41254555	-0.14967722	0.65594433	0.45217817	0.14628134	0.20680364	0.37871132	-0.031516139	0.6599526	0.45863159	0.018104155	0.35005294	0.77410972	-0.18394126	0.46050297	0.81224379	0.19366419	0.44854048	0.86583595	-0.14028493	0.50444354	0.89466386	0.10137269	0.28829407	0.89777184	0.028875978	0.44200601	1.367437	-0.14707584	0.37419708	1.3914352	0.12084571	0.35148019	1.3863119	-0.026974629	0.42790149	1.1498769	-0.40782396	0.14428354	1.2322365	0.32059334	0.65147057	1.1530405	-0.53061946	0.11802144	1.3802084	0.52693357
279	1.112	0.067659494	-0.0064319382	-0.10101555	0.8663573	0.069669118	0.088673714	-0.019882812	0.095546944	-0.13841977	0.72976512	0.055386504	0.13526519	0.0036698857	0.10797155	-0.057187163	0.73935623	0.083025699	0.050672922	-0.08571143	0.10610356	-0.09507212	0.68652939	0.016941855	0.092290662	0.20470601	0.41323368	-0.14964992	0.66133929	0.45007304	0.1457184	0.21465444	0.37870181	-0.031606967	0.6649252	0.45626127	0.01784518	0.35818111	0.77396789	-0.18292287	0.46921847	0.81250904	0.19413032	0.45748957	0.86570245	-0.13962289	0.51362634	0.89462685	0.1016937	0.29719003	0.8984613	0.029672773	0.44934024	1.3679266	-0.14535591	0.38150864	1.3914942	0.12224332	0.35895825	1.3862761	-0.025345921	0.43438238	1.1509047	-0.40648687	0.15093389	1.2323527	0.32106838	0.65819467	1.1546397	-0.53002363	0.1235314	1.3811445	0.52664288
280	1.116	0.069073884	-0.0065076318	-0.10097724	0.86976595	0.062898512	0.088253845	-0.015437962	0.098211677	-0.13868713	0.73307232	0.054873405	0.13479018	0.0089483958	0.10990397	-0.057713431	0.74308576	0.081814401	0.049995826	-0.080382461	0.11033021	-0.094762162	0.68776559	0.018476695	0.092302145	0.21228614	0.41379774	-0.14959797	0.66602659	0.44791055	0.14505078	0.22276062	0.37862026	-0.031695429	0.669717	0.45382499	0.017385207	0.36642431	0.77373101	-0.18189696	0.47793949	0.81265514	0.19462131	0.46650407	0.86555655	-0.13891764	0.52259695	0.89462159	0.10202101	0.30594341	0.89925174	0.030429848	0.45671026	1.3684313	-0.14363999	0.3888121	1.3915475	0.12366019	0.36635683	1.3862606	-0.02371122	0.44083412	1.1518577	-0.40506795	0.15767052	1.2323874	0.32158288	0.66449786	1.1561274	-0.52935907	0.12915725	1.3818857	0.52644965
281	1.12	0.070569109	-0.0066899043	-0.1009447	0.8740959	0.056599302	0.087942993	-0.010682544	0.10081926	-0.13898817	0.73719108	0.054927345	0.13446128	0.014505498	0.11178067	-0.058237674	0.74753677	0.081020127	0.049364133	-0.074733635	0.11455319	-0.094489722	0.68962519	0.02055642	0.092408356	0.22018709	0.41424594	-0.14954286	0.67039325	0.44589178	0.14440993	0.23113047	0.37845149	-0.031802057	0.67422422	0.45142977	0.016870977	0.3747956	0.77343951	-0.18093198	0.48665333	0.81269024	0.19515425	0.47554043	0.86540083	-0.13815023	0.53127938	0.89464124	0.10240195	0.31458415	0.90015721	0.031117091	0.46411754	1.3689759	-0.14194995	0.39602978	1.391591	0.12506959	0.37370188	1.3862458	-0.022017144	0.44726084	1.1527274	-0.40357123	0.16449744	1.2323471	0.32213177	0.67060139	1.1574789	-0.52866606	0.13489552	1.3824419	0.52636531
282	1.124	0.072074843	-0.0070118627	-0.10091312	0.87860513	0.051329621	0.087564662	-0.0055794627	0.10338467	-0.13933942	0.74154844	0.054996045	0.13428653	0.02032085	0.1136288	-0.058743649	0.75197808	0.080312521	0.048880161	-0.068782309	0.11878425	-0.094286517	0.69180495	0.022630063	0.092667132	0.22841137	0.4145887	-0.14950095	0.67500204	0.44430489	0.14388837	0.23973658	0.37819118	-0.031944316	0.67845206	0.44919981	0.016394979	0.38330737	0.77312905	-0.180081	0.49533195	0.81265895	0.19573229	0.48454088	0.86524156	-0.1373188	0.53968206	0.89466833	0.10285467	0.32316325	0.90118227	0.031711663	0.47156464	1.3695819	-0.14029375	0.40311112	1.3916107	0.1264543	0.3810181	1.386244	-0.020242055	0.45365004	1.1535017	-0.40199427	0.17141136	1.2322423	0.32270907	0.67660942	1.1586815	-0.52796172	0.14074038	1.3828196	0.5263923
283	1.128	0.073532419	-0.0074239522	-0.10088747	0.88270884	0.047303633	0.087030823	-0.00014575196	0.10594737	-0.13971279	0.74561024	0.054851393	0.13427213	0.02634265	0.11548115	-0.059224747	0.75598777	0.079590352	0.048568134	-0.062571245	0.12304442	-0.094160723	0.69398161	0.024391072	0.0930914	0.23694986	0.41482435	-0.14948065	0.68023401	0.44341352	0.1434662	0.24850624	0.37783972	-0.032150877	0.68247873	0.44726295	0.016021925	0.39195588	0.77280467	-0.17936164	0.50394802	0.81263893	0.19633595	0.49345129	0.86508605	-0.13643545	0.54784231	0.89470473	0.10337122	0.33169719	0.90230798	0.03221056	0.47904872	1.370259	-0.13866397	0.41010002	1.3916064	0.12783082	0.38832623	1.3862859	-0.018384679	0.45997988	1.1541662	-0.40032155	0.17840954	1.232083	0.32331273	0.68252911	1.1597358	-0.5272505	0.14668428	1.3830236	0.52652837
284	1.132	0.074930825	-0.0077701716	-0.10088746	0.88617235	0.044487879	0.086492427	0.0055384787	0.10856299	-0.14004484	0.74898543	0.054551632	0.13440858	0.032519322	0.11737942	-0.059673094	0.75940487	0.07890231	0.048365415	-0.056150107	0.12736592	-0.094097691	0.69587752	0.025734964	0.093597856	0.24580228	0.41494146	-0.14948363	0.68619299	0.44331455	0.14305587	0.25738676	0.37739286	-0.032449449	0.68640041	0.44574806	0.015799678	0.40070122	0.77243812	-0.17877844	0.51249045	0.81272218	0.19693338	0.50224888	0.86494261	-0.13550323	0.5558175	0.89475985	0.10392959	0.3401339	0.9034846	0.032628095	0.4865541	1.3710025	-0.13705336	0.4171102	1.3916018	0.12923482	0.3956583	1.3863971	-0.01648014	0.46623269	1.1547161	-0.39854127	0.18549404	1.2318743	0.32394515	0.68833041	1.1606482	-0.52653604	0.15272213	1.3830586	0.52677962
285	1.136	0.076313559	-0.0078637866	-0.10092628	0.88891397	0.042651803	0.086201882	0.011388025	0.11127966	-0.14030087	0.7514271	0.054240667	0.134619	0.038814566	0.11936741	-0.060074736	0.76209514	0.078300173	0.04819604	-0.049554477	0.13178665	-0.094074195	0.69731748	0.026657655	0.094033825	0.25497848	0.41491735	-0.1495005	0.69287353	0.44389296	0.14261372	0.26644717	0.37682358	-0.032826221	0.69029047	0.44476616	0.015720252	0.40948728	0.77198685	-0.1783275	0.52096194	0.81297618	0.1975065	0.51094839	0.86482251	-0.13450517	0.56367483	0.89482539	0.10450451	0.34836402	0.90464296	0.032984632	0.49406076	1.3717935	-0.13545963	0.42421615	1.391621	0.13067584	0.40304259	1.3865815	-0.014586976	0.47240926	1.1551744	-0.3966745	0.19266712	1.2316155	0.32460975	0.69398352	1.1614206	-0.52582445	0.15885501	1.3829195	0.52716046
286	1.14	0.077771343	-0.0075782573	-0.10097773	0.8908268	0.041465486	0.086274015	0.017362623	0.11412499	-0.14049519	0.75287055	0.054031487	0.13479076	0.045206771	0.12148205	-0.060409127	0.7639206	0.077790372	0.048038523	-0.042798439	0.13634397	-0.094070436	0.69826273	0.027206156	0.094287405	0.26449329	0.41472084	-0.1495221	0.70025186	0.44492263	0.14217759	0.27585475	0.3760861	-0.033228873	0.69422401	0.44439356	0.015710405	0.41829581	0.77143274	-0.17798267	0.52935968	0.81341867	0.19806385	0.51956569	0.86473592	-0.13342605	0.57144121	0.89488458	0.10508111	0.35628036	0.90572988	0.033298227	0.5015605	1.3726092	-0.13387874	0.43140333	1.3916669	0.13213012	0.41048247	1.3868283	-0.012748489	0.47853071	1.1555865	-0.39476948	0.19992851	1.2312997	0.3253055	0.69948678	1.1620421	-0.5251183	0.16509429	1.3825923	0.52767765
